<svg width="77" height="19" viewBox="0 0 77 19" fill="none" xmlns="http://www.w3.org/2000/svg">
<path d="M0.848 0.912H7.136C9.936 0.912 12.104 1.656 13.64 3.144C15.192 4.632 15.968 6.728 15.968 9.432C15.968 12.152 15.192 14.264 13.64 15.768C12.104 17.256 9.936 18 7.136 18H0.848V0.912ZM6.944 15.48C10.88 15.48 12.848 13.464 12.848 9.432C12.848 5.432 10.88 3.432 6.944 3.432H3.944V15.48H6.944ZM30.6253 5.88V18H27.6733V16.056C27.3053 16.728 26.7773 17.256 26.0893 17.64C25.4013 18.008 24.6173 18.192 23.7373 18.192C22.6813 18.192 21.7453 17.936 20.9293 17.424C20.1133 16.912 19.4813 16.184 19.0333 15.24C18.5853 14.296 18.3613 13.2 18.3613 11.952C18.3613 10.704 18.5853 9.6 19.0333 8.64C19.4973 7.664 20.1373 6.912 20.9533 6.384C21.7693 5.84 22.6973 5.568 23.7373 5.568C24.6173 5.568 25.4013 5.76 26.0893 6.144C26.7773 6.512 27.3053 7.032 27.6733 7.704V5.88H30.6253ZM24.5533 15.84C25.5453 15.84 26.3133 15.496 26.8573 14.808C27.4013 14.12 27.6733 13.152 27.6733 11.904C27.6733 10.624 27.4013 9.64 26.8573 8.952C26.3133 8.264 25.5373 7.92 24.5293 7.92C23.5373 7.92 22.7613 8.28 22.2013 9C21.6573 9.704 21.3853 10.688 21.3853 11.952C21.3853 13.2 21.6573 14.16 22.2013 14.832C22.7613 15.504 23.5453 15.84 24.5533 15.84ZM44.0926 15.72V18H33.5566V15.912L40.2526 8.136H33.7006V5.88H43.8286V7.92L37.1086 15.72H44.0926ZM56.8454 15.72V18H46.3094V15.912L53.0054 8.136H46.4534V5.88H56.5814V7.92L49.8614 15.72H56.8454ZM59.5182 5.88H62.4942V18H59.5182V5.88ZM62.6622 0.383999V3.336H59.3262V0.383999H62.6622ZM76.5041 12.096H68.1521C68.2161 13.392 68.5361 14.352 69.1121 14.976C69.7041 15.584 70.5761 15.888 71.7281 15.888C73.0561 15.888 74.2881 15.456 75.4241 14.592L76.2881 16.656C75.7121 17.12 75.0001 17.496 74.1521 17.784C73.3201 18.056 72.4721 18.192 71.6081 18.192C69.6241 18.192 68.0641 17.632 66.9281 16.512C65.7921 15.392 65.2241 13.856 65.2241 11.904C65.2241 10.672 65.4721 9.576 65.9681 8.616C66.4641 7.656 67.1601 6.912 68.0561 6.384C68.9521 5.84 69.9681 5.568 71.1041 5.568C72.7681 5.568 74.0801 6.112 75.0401 7.2C76.0161 8.272 76.5041 9.752 76.5041 11.64V12.096ZM71.1761 7.728C70.3761 7.728 69.7201 7.968 69.2081 8.448C68.7121 8.912 68.3921 9.592 68.2481 10.488H73.8881C73.7921 9.576 73.5121 8.888 73.0481 8.424C72.6001 7.96 71.9761 7.728 71.1761 7.728Z" fill="#11142D"/>
</svg>
